<svg xmlns="http://www.w3.org/2000/svg" viewBox="0 0 2326 4173" width="2326" height="4173">
	<defs>
		<filter x="-50%" y="-50%" width="200%" height="200%" id="flt1"> <feGaussianBlur stdDeviation="10" /> </filter>
	</defs>
	<style>
		tspan { white-space:pre }
		.shp0 { opacity: 0.502;filter: url(#flt1);fill: #3d3bee } 
		.shp1 { opacity: 0.502;filter: url(#flt1);fill: #fa2b56 } 
	</style>
	<g id="Bkur Circle">
		<path id="Blue Blur copy 6" class="shp0" d="M1718.5 1492L1718.5 1492C1759.15 1492 1792 1524.85 1792 1565.5L1792 1565.5C1792 1606.14 1759.15 1639 1718.5 1639L1718.5 1639C1677.85 1639 1645 1606.14 1645 1565.5L1645 1565.5C1645 1524.85 1677.85 1492 1718.5 1492Z" />
		<path id="Blue Blur copy 5" class="shp1" d="M2126 1804L2126 1804C2223.88 1804 2303 1883.11 2303 1981L2303 1981C2303 2078.88 2223.88 2158 2126 2158L2126 2158C2028.12 2158 1949 2078.88 1949 1981L1949 1981C1949 1883.11 2028.12 1804 2126 1804Z" />
		<path id="Blue Blur copy 7" class="shp1" d="M2126 3796L2126 3796C2223.88 3796 2303 3875.11 2303 3973L2303 3973C2303 4070.88 2223.88 4150 2126 4150L2126 4150C2028.12 4150 1949 4070.88 1949 3973L1949 3973C1949 3875.11 2028.12 3796 2126 3796Z" />
		<path id="Blue Blur copy 2" class="shp1" d="M1181.5 1824L1181.5 1824C1203.9 1824 1222 1842.1 1222 1864.5L1222 1864.5C1222 1886.89 1203.9 1905 1181.5 1905L1181.5 1905C1159.1 1905 1141 1886.89 1141 1864.5L1141 1864.5C1141 1842.1 1159.1 1824 1181.5 1824Z" />
		<path id="Blue Blur copy" class="shp0" d="M201 3029L201 3029C298.88 3029 378 3108.11 378 3206L378 3206C378 3303.88 298.88 3383 201 3383L201 3383C103.12 3383 24 3303.88 24 3206L24 3206C24 3108.11 103.12 3029 201 3029Z" />
		<path id="Blue Blur copy 4" class="shp0" d="M203 911L203 911C300.88 911 380 990.11 380 1088L380 1088C380 1185.88 300.88 1265 203 1265L203 1265C105.12 1265 26 1185.88 26 1088L26 1088C26 990.11 105.12 911 203 911Z" />
		<path id="Blue Blur" class="shp0" d="M2123 24L2123 24C2220.88 24 2300 103.11 2300 201L2300 201C2300 298.88 2220.88 378 2123 378L2123 378C2025.12 378 1946 298.88 1946 201L1946 201C1946 103.11 2025.12 24 2123 24Z" />
	</g>
</svg>